<?xml version="1.0" standalone="no"?>
<!DOCTYPE svg PUBLIC "-//W3C//DTD SVG 20010904//EN"
 "http://www.w3.org/TR/2001/REC-SVG-20010904/DTD/svg10.dtd">
<svg version="1.0" xmlns="http://www.w3.org/2000/svg"
 width="499.000000pt" height="499.000000pt" viewBox="0 0 499.000000 499.000000"
 preserveAspectRatio="xMidYMid meet">
<g transform="translate(0.000000,499.000000) scale(0.100000,-0.100000)"
fill="#8c0327" stroke="none">
<path d="M2409 4636 c-200 -31 -394 -93 -522 -168 -107 -62 -281 -198 -254
-198 4 0 49 33 101 74 113 88 208 141 336 189 108 40 297 82 416 92 113 10
166 -8 459 -150 61 -30 119 -61 130 -69 18 -13 15 -13 -30 -5 -122 23 -490 31
-680 14 -174 -15 -364 -53 -584 -115 -77 -22 -147 -37 -156 -34 -8 3 -15 2
-15 -4 0 -5 -24 -16 -52 -22 -72 -17 -179 -63 -232 -99 -81 -56 -142 -185
-115 -244 9 -19 7 -32 -11 -67 -37 -73 -26 -178 24 -219 9 -8 16 -29 16 -50 0
-20 5 -54 10 -76 8 -36 4 -55 -41 -180 -28 -77 -74 -194 -101 -260 -69 -164
-102 -257 -138 -391 -64 -237 -75 -381 -41 -534 19 -84 71 -242 96 -289 l12
-25 -146 -39 c-80 -21 -198 -51 -261 -66 -63 -16 -135 -36 -160 -46 -62 -26
-231 -117 -226 -123 3 -2 65 25 138 61 73 36 160 70 193 77 76 15 136 30 315
79 79 22 145 39 146 38 1 -1 20 -41 42 -89 22 -48 74 -145 116 -215 70 -119
79 -142 135 -334 33 -114 83 -267 111 -340 28 -74 73 -192 100 -264 77 -207
156 -404 165 -412 15 -14 -6 49 -65 201 -156 400 -226 595 -276 765 -73 247
-76 254 -151 384 -90 154 -114 204 -177 363 -87 220 -101 284 -101 449 0 97 6
166 18 225 29 135 101 355 167 511 34 79 80 198 103 264 l41 120 9 -40 c17
-81 31 -129 34 -118 3 7 -8 69 -22 140 -22 106 -26 146 -23 236 4 101 7 112
44 184 53 104 78 117 223 115 60 -2 143 4 191 13 47 8 121 15 165 15 44 1 116
5 160 10 90 9 255 23 482 41 84 7 156 12 160 13 5 1 9 -10 11 -24 2 -20 1 -22
-8 -10 -8 11 -10 6 -6 -25 3 -22 5 -66 6 -97 0 -37 4 -58 11 -58 9 0 10 24 6
83 -5 78 -5 80 9 48 23 -52 26 -31 5 32 l-18 57 66 0 c85 0 306 -17 396 -31
39 -6 122 -26 185 -44 148 -42 361 -92 425 -100 77 -10 128 -27 113 -37 -8 -6
-4 -7 11 -3 16 5 21 4 17 -4 -4 -6 -1 -11 6 -11 19 0 72 -57 93 -99 43 -86 27
-270 -50 -569 -46 -179 -59 -211 -130 -327 -24 -38 -57 -105 -74 -147 -97
-246 -104 -441 -30 -813 26 -129 85 -362 96 -374 13 -17 7 18 -18 104 -64 220
-109 489 -110 673 -2 133 13 220 62 363 22 66 89 202 96 196 2 -2 10 -78 18
-169 8 -90 21 -200 29 -244 8 -43 22 -128 31 -189 9 -60 29 -162 45 -225 39
-157 38 -154 60 -510 10 -170 12 -182 70 -445 55 -251 120 -550 132 -610 6
-27 15 -54 21 -60 12 -12 15 -28 -64 335 -63 295 -122 577 -132 643 -5 33 -4
36 12 27 33 -17 391 -109 431 -110 14 -1 39 -7 55 -15 l30 -15 -33 6 c-30 5
-33 4 -28 -13 4 -11 20 -80 36 -154 44 -195 91 -369 100 -369 5 0 -7 57 -25
128 -18 70 -45 179 -59 242 -14 63 -28 125 -32 137 -6 23 -6 23 30 8 19 -8 46
-15 58 -15 21 1 21 2 -6 17 -16 8 -39 24 -50 34 -11 11 -30 19 -43 19 -21 0
-429 101 -464 115 -12 5 -18 47 -32 238 -13 182 -23 258 -46 352 -47 191 -91
483 -119 778 -8 87 -7 89 25 155 35 71 109 345 137 511 28 165 18 257 -39 343
-46 69 -112 101 -257 123 -36 6 -38 8 -38 42 0 41 -29 93 -67 121 -15 11 -27
31 -29 47 -10 99 -190 228 -389 281 -55 14 -120 38 -145 54 -93 57 -337 174
-428 206 -64 22 -141 25 -243 10z m481 -237 c75 -4 214 -25 300 -45 178 -43
324 -128 386 -225 35 -55 30 -64 -18 -34 -78 49 -161 85 -200 88 -9 1 -14 5
-11 10 3 5 -9 7 -28 3 -19 -3 -28 -3 -21 0 25 11 11 22 -18 14 -46 -13 -44 5
5 46 25 20 43 39 40 42 -3 3 -18 -6 -33 -20 -50 -46 -73 -57 -106 -51 -17 3
-33 7 -35 9 -7 6 41 44 76 61 34 16 47 37 16 26 -25 -9 -75 -44 -95 -66 -10
-11 -26 -17 -40 -15 -20 3 -14 10 41 46 74 49 78 52 64 52 -6 0 -46 -24 -89
-52 -50 -35 -79 -49 -82 -40 -2 6 -8 10 -13 6 -5 -3 -9 -1 -9 3 0 5 29 28 65
51 36 24 65 45 65 47 0 14 -77 -34 -125 -78 -13 -12 -28 -16 -47 -12 -22 5
-28 3 -28 -9 0 -13 7 -15 31 -11 18 3 28 2 25 -4 -3 -5 2 -7 13 -4 10 3 22 0
26 -7 5 -8 10 -8 21 1 9 7 14 7 14 1 0 -5 14 -9 30 -8 17 1 30 -1 30 -6 0 -4
21 -8 46 -8 25 0 43 -4 40 -8 -3 -5 32 -18 77 -29 141 -36 236 -79 330 -153
32 -26 65 -87 59 -112 -4 -19 -32 -25 -32 -7 0 5 -4 8 -9 5 -15 -10 -300 59
-381 91 -8 3 -24 8 -35 10 -11 2 -42 8 -70 13 -61 12 -202 23 -312 24 -80 0
-101 7 -67 20 9 4 14 9 10 13 -3 4 -18 -4 -32 -18 -19 -18 -27 -21 -33 -10 -5
8 -11 9 -15 3 -3 -6 -27 -10 -53 -11 -27 0 -69 -3 -95 -6 -27 -3 -48 -3 -48
-1 0 8 73 56 85 56 5 -1 0 -9 -12 -19 -37 -31 -26 -33 17 -5 46 31 52 47 13
38 -28 -5 -28 -5 -7 13 11 10 38 33 60 51 21 18 29 28 17 22 -12 -5 -43 -28
-68 -50 -49 -42 -81 -55 -49 -19 10 12 37 35 58 50 21 16 33 29 25 29 -8 0
-34 -18 -59 -41 -25 -23 -58 -51 -75 -62 -33 -24 -65 -54 -65 -62 0 -7 64 38
68 48 2 4 11 7 20 7 12 -1 4 -12 -23 -36 -39 -34 -42 -34 -125 -33 -47 1 -96
-1 -110 -5 -14 -3 -61 -8 -105 -11 -93 -7 -141 -12 -172 -20 -31 -7 -21 14 20
42 36 25 155 143 144 143 -4 0 -33 -24 -65 -53 -31 -28 -69 -61 -83 -72 -14
-11 -31 -30 -38 -43 -6 -12 -18 -22 -26 -22 -8 0 -15 1 -15 3 0 8 184 187 194
189 6 0 22 2 36 4 66 7 116 15 132 20 10 3 18 0 18 -6 0 -6 5 -8 11 -4 6 3 28
8 48 10 31 4 34 3 18 -8 -21 -15 -49 -38 -92 -77 -16 -14 -47 -39 -68 -55 -21
-16 -35 -31 -33 -33 7 -8 64 35 124 92 30 27 66 58 82 68 36 23 168 36 270 27
41 -4 65 -7 53 -8 -13 -1 -23 -6 -23 -11 0 -11 38 -2 46 10 3 5 17 9 32 9 24
0 21 -3 -23 -29 -28 -16 -58 -37 -65 -47 -13 -16 -13 -17 0 -9 8 5 29 19 45
31 51 38 101 53 157 49 29 -2 53 -5 53 -5 0 -1 24 -3 53 -5 62 -4 70 -9 52
-30 -12 -14 -10 -15 16 -9 36 8 43 14 19 14 -12 0 -15 3 -9 9 11 11 84 2 84
-10 0 -5 -10 -9 -22 -9 -20 0 -108 -45 -108 -55 0 -4 61 22 130 55 8 4 24 4
35 -1 16 -6 17 -8 3 -8 -9 -1 -46 -16 -81 -35 -35 -18 -76 -36 -91 -40 -15 -4
-24 -11 -21 -16 4 -7 14 -6 27 1 11 6 18 7 15 2 -4 -6 8 -10 25 -11 28 -1 144
52 172 79 20 18 -8 8 -68 -24 -65 -36 -106 -50 -106 -38 0 10 85 55 130 70 34
10 91 -1 275 -56 14 -4 17 -2 10 5 -12 13 -136 54 -232 77 -44 11 -70 22 -66
28 3 5 1 7 -5 3 -6 -3 -50 0 -99 8 -48 8 -126 18 -173 21 -47 3 -86 10 -88 15
-2 5 -14 5 -29 -1 -13 -5 -29 -7 -34 -3 -5 3 -60 5 -122 5 -111 -1 -125 -2
-222 -15 l-49 -7 26 20 c14 12 32 21 40 21 8 -1 6 -6 -6 -15 -11 -8 -15 -15
-9 -15 7 0 18 7 27 15 8 9 28 15 43 15 15 -1 107 -1 203 -1 96 0 187 -2 203
-4 15 -2 27 1 27 5 0 5 -15 10 -32 12 l-33 3 47 31 c37 24 44 34 35 43 -9 10
-8 11 4 6 9 -3 22 2 30 11 9 12 10 15 1 10 -7 -4 -25 -10 -40 -12 -27 -5 -124
-65 -117 -73 3 -2 19 7 37 21 18 14 44 28 58 32 20 6 16 0 -19 -31 -42 -36
-47 -37 -118 -38 -40 0 -73 2 -73 5 1 7 58 45 113 75 27 15 47 29 44 31 -8 8
-66 -24 -130 -72 -57 -43 -77 -52 -77 -36 1 8 26 27 104 79 26 18 41 33 33 33
-8 0 -46 -24 -83 -53 -87 -66 -92 -70 -104 -62 -10 6 50 57 114 96 l31 20 -29
-7 c-16 -4 -37 -15 -47 -25 -11 -11 -24 -19 -30 -19 -5 0 -7 -4 -4 -10 3 -5 1
-10 -6 -10 -7 0 -22 -8 -33 -19 -26 -23 -72 -39 -61 -21 6 9 1 9 -16 -1 -22
-11 -23 -11 -10 4 7 10 19 17 25 17 6 0 38 18 71 41 69 47 72 49 58 49 -6 0
-51 -27 -101 -60 -51 -33 -102 -60 -114 -60 -22 1 -22 1 5 18 15 9 27 21 27
26 0 4 -15 -3 -34 -18 -19 -14 -43 -26 -53 -26 -15 0 -14 3 7 20 14 10 21 22
17 26 -4 5 -18 -5 -31 -21 -19 -23 -32 -29 -72 -31 l-49 -3 40 34 c22 19 37
34 33 35 -4 0 -28 -18 -53 -40 -25 -22 -52 -41 -58 -41 -7 -1 -18 -2 -26 -3
-16 -1 -28 -26 -13 -26 22 0 72 23 72 33 0 8 4 7 9 -2 7 -10 13 -11 30 -2 19
11 25 8 22 -12 -1 -4 10 0 24 9 13 9 30 14 37 12 16 -6 -41 -37 -68 -37 -10
-1 -32 -3 -49 -6 -16 -2 -46 -6 -65 -9 -44 -5 -127 -17 -160 -22 -14 -2 -52
-7 -85 -10 -33 -3 -78 -12 -100 -20 -61 -21 -77 -16 -19 7 29 11 56 29 62 42
7 12 19 33 28 47 15 23 15 23 0 5 -45 -55 -71 -76 -109 -87 -23 -7 -50 -11
-60 -10 -10 1 -30 -5 -45 -14 -19 -11 -21 -14 -7 -11 11 3 28 8 38 12 10 4 17
3 17 -4 0 -11 -8 -12 -75 -16 -16 -1 -43 -7 -59 -13 -16 -7 -31 -11 -33 -9 -2
3 10 10 27 17 16 7 30 16 30 21 0 11 -52 -11 -66 -28 -6 -7 -14 -10 -17 -6 -4
3 -7 2 -7 -4 0 -6 -11 -14 -24 -17 -14 -3 -27 -14 -30 -24 -4 -10 -23 -27 -43
-38 -20 -10 -39 -26 -41 -34 -4 -12 -1 -11 15 3 11 9 23 17 26 17 4 0 32 16
62 37 75 49 79 37 5 -16 -33 -24 -60 -48 -60 -52 0 -15 9 -10 37 20 33 34 138
94 172 99 23 3 22 1 -12 -34 -20 -21 -35 -39 -33 -41 5 -5 84 76 80 82 -2 3
-1 3 2 0 4 -2 15 0 25 5 12 7 19 6 22 -3 3 -9 10 -7 25 6 13 12 39 20 70 22
27 1 54 5 60 9 6 3 32 8 59 10 26 3 63 9 82 15 19 6 36 9 38 7 4 -3 -77 -86
-140 -144 -19 -17 -37 -37 -39 -44 -2 -6 -9 -9 -16 -7 -12 4 133 159 149 159
5 0 9 5 9 11 0 6 -15 0 -32 -13 -41 -31 -148 -139 -148 -149 0 -10 -70 -17
-76 -7 -3 4 7 10 21 14 13 3 22 11 19 16 -4 6 20 37 52 69 32 32 55 59 50 59
-5 0 -46 -38 -92 -85 -46 -47 -92 -86 -102 -86 -26 -2 -73 -7 -117 -13 -37 -6
-39 -5 -21 9 11 8 17 18 13 21 -6 7 -43 -16 -46 -28 0 -5 -4 -7 -8 -5 -5 1 -7
6 -5 10 1 4 -6 3 -17 -3 -29 -15 -114 -13 -105 3 6 10 4 10 -7 0 -16 -15 -33
-17 -24 -3 3 6 2 10 -4 10 -5 0 -14 -6 -18 -13 -4 -7 -26 -21 -48 -32 -33 -15
-46 -31 -71 -84 -34 -70 -49 -117 -45 -140 1 -7 -3 -10 -9 -6 -7 4 -8 -6 -4
-34 8 -49 0 -52 -22 -10 -23 45 -20 129 6 180 26 49 97 129 116 129 8 0 14 4
14 9 0 5 7 11 15 15 30 11 14 -10 -25 -34 -22 -14 -40 -30 -40 -37 0 -6 -10
-19 -22 -27 -25 -18 -17 -21 13 -6 10 6 19 17 19 24 0 8 24 29 53 47 28 18 61
42 72 54 11 12 30 25 42 29 11 4 27 13 33 21 10 12 8 13 -8 10 -11 -2 -32 -11
-46 -20 -16 -11 -26 -13 -26 -6 0 6 4 11 8 11 4 0 50 41 101 90 52 50 90 90
84 90 -14 0 -203 -185 -203 -199 0 -9 -50 -41 -65 -41 -9 0 145 162 203 213
32 29 135 62 154 51 7 -4 8 -2 4 4 -5 8 1 12 14 12 12 0 30 5 41 10 13 8 19 7
19 0 0 -6 9 -5 23 4 23 15 187 59 194 52 2 -2 -13 -14 -34 -25 -21 -12 -61
-47 -88 -79 -41 -46 -44 -52 -17 -32 18 13 39 34 47 47 8 12 30 30 48 39 17 9
44 27 59 40 25 20 125 50 135 40 3 -3 -8 -11 -24 -20 -15 -8 -58 -44 -94 -80
-39 -39 -75 -66 -87 -66 -12 0 -24 -4 -27 -10 -8 -13 1 -13 44 0 19 5 57 12
85 16 28 3 60 7 71 9 11 1 31 3 43 4 13 0 22 6 20 13 -4 12 78 92 127 124 14
9 23 19 21 22 -7 6 -57 -32 -130 -99 -31 -28 -60 -49 -63 -45 -7 6 38 52 105
105 23 19 40 36 38 39 -3 2 -24 -11 -48 -29 -53 -41 -118 -106 -113 -111 2 -2
-11 -5 -29 -6 -18 -1 -48 -7 -66 -12 -40 -12 -43 -14 78 89 59 50 92 71 110
71 15 0 43 2 62 5 19 2 73 7 120 11 47 3 86 8 88 9 2 2 340 -3 402 -6z m-1358
-205 c-18 -15 -51 -45 -72 -68 -21 -22 -74 -77 -116 -121 -42 -44 -83 -89 -90
-100 -13 -17 -16 -18 -24 -5 -11 17 -4 69 15 116 17 41 71 101 117 130 60 38
58 28 -7 -34 -61 -58 -110 -120 -102 -128 2 -2 22 17 43 43 75 93 162 173 186
173 2 0 -45 -49 -104 -110 -59 -60 -108 -114 -108 -120 0 -6 -6 -8 -12 -4 -7
4 -10 4 -6 -1 4 -4 3 -14 -3 -22 -7 -8 -8 -13 -1 -13 5 0 16 10 25 23 31 46
228 251 251 261 33 13 37 3 8 -20z"/>
<path d="M2527 4370 c-50 -31 -58 -41 -29 -33 17 4 92 62 81 63 -3 0 -26 -13
-52 -30z"/>
<path d="M2360 4369 c-46 -28 -132 -100 -126 -106 2 -3 29 15 59 39 30 24 70
53 88 66 43 28 26 29 -21 1z"/>
<path d="M2424 4368 c-36 -29 -84 -82 -78 -87 2 -3 21 12 42 32 20 20 46 43
57 51 11 8 17 17 14 20 -3 4 -19 -4 -35 -16z"/>
<path d="M2474 4368 c-16 -12 -31 -23 -33 -25 -2 -2 -2 -5 1 -8 3 -3 22 8 43
25 43 34 33 42 -11 8z"/>
<path d="M2570 4360 c-25 -16 -40 -30 -35 -30 6 0 30 14 55 30 25 16 41 30 35
30 -5 0 -30 -14 -55 -30z"/>
<path d="M2880 4360 c-62 -33 -111 -69 -94 -70 6 0 17 7 25 16 7 9 39 29 71
45 32 16 58 31 58 34 0 7 1 7 -60 -25z"/>
<path d="M2153 4322 c-63 -53 -91 -82 -77 -82 11 1 152 129 142 130 -4 0 -33
-22 -65 -48z"/>
<path d="M3008 4358 c-16 -6 -28 -16 -28 -23 0 -7 -12 -20 -26 -30 -14 -9 -23
-19 -20 -23 4 -3 23 11 44 31 21 20 45 37 54 37 9 0 19 4 22 8 7 11 -12 11
-46 0z"/>
<path d="M3033 4324 c-29 -20 -53 -41 -53 -46 0 -9 25 5 40 23 3 3 23 18 45
32 22 15 35 27 30 27 -6 -1 -34 -17 -62 -36z"/>
<path d="M2001 4279 c-34 -34 -60 -64 -57 -66 2 -2 35 25 72 61 38 36 63 66
57 66 -6 0 -38 -28 -72 -61z"/>
<path d="M3085 4293 l-30 -25 40 23 c51 29 51 29 34 29 -8 -1 -27 -12 -44 -27z"/>
<path d="M3257 4296 c-16 -13 -38 -31 -50 -40 -12 -8 -17 -15 -11 -15 14 -1
94 58 94 70 0 13 -2 12 -33 -15z"/>
<path d="M1812 4260 c-28 -21 -57 -49 -66 -61 -8 -12 -28 -30 -43 -40 -15 -11
-23 -19 -17 -19 14 0 43 23 124 99 74 69 75 79 2 21z"/>
<path d="M1842 4238 c-34 -34 -59 -64 -57 -66 3 -3 35 25 72 62 37 36 63 66
57 66 -6 0 -38 -28 -72 -62z"/>
<path d="M3310 4254 c-32 -31 -21 -31 26 1 26 18 31 25 18 24 -10 0 -30 -11
-44 -25z"/>
<path d="M1754 4257 c-12 -7 -45 -34 -75 -62 -56 -51 -28 -38 51 24 25 19 47
37 49 38 2 2 2 5 0 7 -2 2 -14 -1 -25 -7z"/>
<path d="M3357 4245 c-8 -8 -17 -11 -21 -8 -3 4 -6 1 -6 -5 0 -7 2 -12 3 -12
8 0 67 32 67 36 0 10 -30 3 -43 -11z"/>
<path d="M1654 4218 c-16 -12 -38 -32 -49 -44 -11 -12 -40 -38 -63 -58 -24
-20 -38 -36 -31 -36 7 0 22 9 34 19 11 11 38 37 60 58 22 21 54 48 70 60 17
12 25 23 19 23 -6 0 -24 -10 -40 -22z"/>
<path d="M3380 4220 c-14 -11 -19 -20 -12 -20 7 0 20 7 28 15 18 17 34 20 34
5 0 -5 7 -10 15 -10 8 0 15 5 15 11 0 5 -4 8 -9 4 -5 -3 -12 -1 -16 5 -9 15
-27 12 -55 -10z"/>
<path d="M2568 4173 c-23 -21 -63 -58 -88 -82 -65 -63 1 -15 80 58 70 66 77
85 8 24z"/>
<path d="M2453 4173 c-76 -51 -183 -136 -178 -141 3 -3 19 4 35 16 16 12 32
22 35 22 3 0 16 10 29 23 32 31 82 69 119 90 17 9 25 17 16 17 -8 0 -34 -12
-56 -27z"/>
<path d="M2550 4191 c0 -5 -9 -12 -19 -16 -10 -3 -34 -21 -52 -40 -19 -19 -43
-35 -55 -35 -11 0 -29 -9 -39 -20 -10 -11 -24 -20 -30 -20 -7 0 -15 -7 -19
-15 -6 -17 9 -21 19 -5 3 6 13 10 21 10 9 0 12 -5 8 -11 -15 -24 32 11 71 53
22 23 58 57 80 75 22 18 34 32 28 33 -7 0 -13 -4 -13 -9z m-140 -125 c0 -3 -4
-8 -10 -11 -5 -3 -10 -1 -10 4 0 6 5 11 10 11 6 0 10 -2 10 -4z"/>
<path d="M2850 4185 c-9 -10 -9 -15 -1 -15 6 0 11 4 11 9 0 5 8 12 18 14 14 4
14 5 1 6 -9 0 -22 -6 -29 -14z"/>
<path d="M3420 4192 c0 -5 7 -9 15 -9 8 0 15 4 15 9 0 4 -7 8 -15 8 -8 0 -15
-4 -15 -8z"/>
<path d="M2874 4162 c-21 -16 -45 -36 -53 -46 -9 -10 -21 -14 -33 -10 -13 4
-27 -1 -40 -16 -24 -26 -16 -40 10 -17 13 12 31 15 66 12 26 -3 51 -7 56 -10
20 -12 121 -15 140 -3 26 16 26 28 0 21 -11 -3 -20 -9 -20 -14 0 -5 -4 -9 -10
-9 -5 0 -7 7 -4 15 5 11 -1 15 -22 15 l-29 0 30 25 c20 17 9 13 -29 -11 -42
-26 -57 -32 -53 -20 6 15 3 17 -24 11 -25 -6 -30 -4 -23 6 9 16 48 49 78 66
12 7 16 12 10 13 -6 0 -29 -13 -50 -28z m73 -78 c-3 -3 -12 -4 -19 -1 -8 3 -5
6 6 6 11 1 17 -2 13 -5z"/>
<path d="M2945 4180 c4 -6 11 -8 16 -5 14 9 11 15 -7 15 -8 0 -12 -5 -9 -10z"/>
<path d="M3470 4180 c-8 -5 -12 -11 -9 -14 3 -3 14 1 25 9 21 16 8 20 -16 5z"/>
<path d="M2192 4136 c-29 -25 -66 -55 -83 -67 -23 -16 -28 -24 -17 -30 10 -7
10 -9 -2 -10 -8 -1 -20 -1 -27 0 -6 1 -14 -2 -17 -7 -6 -10 35 -9 52 1 7 5 10
13 7 18 -4 5 -2 9 4 9 5 0 31 20 58 44 26 24 59 53 73 65 14 11 20 20 14 21
-5 0 -34 -20 -62 -44z"/>
<path d="M2256 4144 c-25 -21 -44 -39 -42 -42 3 -2 24 10 48 29 60 46 64 49
52 49 -6 0 -32 -16 -58 -36z"/>
<path d="M2984 4171 c3 -5 15 -7 26 -4 28 7 25 13 -6 13 -14 0 -23 -4 -20 -9z"/>
<path d="M3040 4169 c0 -5 5 -7 10 -4 6 3 10 8 10 11 0 2 -4 4 -10 4 -5 0 -10
-5 -10 -11z"/>
<path d="M2681 4145 c-16 -14 -28 -32 -25 -39 3 -8 -5 -23 -17 -35 -13 -12
-19 -21 -13 -21 5 0 22 12 37 26 28 26 50 27 29 1 -23 -27 0 -25 29 2 35 34
37 43 7 33 -24 -9 -58 -5 -58 6 0 3 12 16 28 29 15 12 24 22 20 23 -3 0 -20
-11 -37 -25z"/>
<path d="M3495 4160 c-3 -5 -2 -10 4 -10 5 0 13 5 16 10 3 6 2 10 -4 10 -5 0
-13 -4 -16 -10z"/>
<path d="M1975 4120 c-16 -16 -25 -30 -19 -30 5 0 22 14 37 30 16 17 25 30 20
30 -5 0 -22 -13 -38 -30z"/>
<path d="M2760 4139 c0 -5 5 -7 10 -4 6 3 10 8 10 11 0 2 -4 4 -10 4 -5 0 -10
-5 -10 -11z"/>
<path d="M3020 4140 c-13 -8 -13 -10 2 -10 9 0 20 5 23 10 8 13 -5 13 -25 0z"/>
<path d="M2278 4117 c-15 -12 -47 -38 -72 -57 -25 -19 -46 -39 -46 -44 0 -8
65 36 85 58 6 6 25 23 43 39 19 15 30 27 25 27 -4 0 -20 -11 -35 -23z"/>
<path d="M2790 4123 c0 -10 4 -14 8 -8 4 6 11 13 16 18 5 4 2 7 -7 7 -10 0
-17 -8 -17 -17z"/>
<path d="M2895 4130 c-7 -12 2 -12 30 0 19 8 19 9 -2 9 -12 1 -25 -3 -28 -9z"/>
<path d="M1834 4108 c-16 -12 -46 -40 -67 -60 -21 -21 -49 -45 -63 -54 -46
-31 -35 -7 23 50 32 30 53 56 48 56 -6 0 -35 -25 -65 -55 -38 -38 -51 -58 -44
-65 8 -8 19 -8 38 0 15 5 32 8 37 5 13 -9 38 8 108 74 81 77 71 80 -12 5 -66
-59 -97 -81 -97 -66 0 10 71 77 109 105 14 9 22 19 19 22 -3 3 -18 -5 -34 -17z"/>
<path d="M3280 4121 c0 -5 -31 -24 -70 -42 -72 -35 -88 -50 -45 -41 14 2 25 7
25 11 0 6 71 44 103 55 21 7 23 26 2 26 -8 0 -15 -4 -15 -9z"/>
<path d="M3291 4069 c-43 -38 -76 -54 -51 -24 10 12 10 15 -3 15 -8 0 -20 -6
-26 -14 -10 -12 -6 -15 19 -21 28 -6 36 -2 72 35 52 54 45 59 -11 9z"/>
<path d="M3367 4103 c-4 -3 -7 -11 -7 -17 0 -6 5 -5 12 2 6 6 9 14 7 17 -3 3
-9 2 -12 -2z"/>
<path d="M2154 4058 l-29 -32 35 22 c19 11 36 26 38 31 7 21 -15 11 -44 -21z"/>
<path d="M3378 4074 c-16 -8 -28 -17 -28 -19 0 -5 70 22 79 30 10 11 -26 3
-51 -11z"/>
<path d="M1649 4060 c-13 -10 -19 -19 -13 -20 6 0 19 9 29 20 23 26 14 26 -16
0z"/>
<path d="M1908 4048 c-25 -27 -35 -48 -24 -48 2 0 19 18 36 40 37 47 28 53
-12 8z"/>
<path d="M3410 4055 c-19 -13 -42 -24 -50 -25 -8 0 -24 -7 -34 -15 -19 -14
-19 -15 6 -15 15 0 33 6 40 13 7 7 33 25 58 40 25 15 38 27 30 26 -8 0 -31
-11 -50 -24z"/>
<path d="M3462 4045 c-16 -19 -4 -19 28 0 22 13 23 14 5 14 -11 0 -26 -6 -33
-14z"/>
<path d="M3296 4035 c-11 -8 -17 -17 -14 -20 8 -8 43 9 46 23 3 16 -8 15 -32
-3z"/>
<path d="M3510 4035 c-16 -19 -1 -19 24 0 16 12 17 15 4 15 -8 0 -21 -7 -28
-15z"/>
<path d="M1565 4005 c-22 -19 -34 -34 -27 -35 7 0 29 16 50 35 48 45 29 45
-23 0z"/>
<path d="M3552 4020 c-12 -20 -12 -21 13 -4 28 18 31 24 12 24 -7 0 -18 -9
-25 -20z"/>
<path d="M3388 4006 c-27 -20 -21 -30 7 -12 21 14 24 14 19 1 -4 -8 -11 -15
-17 -15 -6 0 -8 -3 -5 -6 8 -7 58 25 58 37 0 14 -43 10 -62 -5z"/>
<path d="M3582 4005 c-10 -12 -10 -15 1 -15 8 0 20 7 27 15 17 21 -10 20 -28
0z"/>
<path d="M3442 3980 c-16 -26 -1 -26 29 0 23 18 23 19 4 20 -11 0 -26 -9 -33
-20z"/>
<path d="M3623 3993 c-15 -5 -17 -23 -4 -23 5 0 11 7 15 15 3 8 4 15 3 14 -1
0 -8 -3 -14 -6z"/>
<path d="M3492 3978 c-19 -19 -15 -23 35 -26 26 -1 50 -6 53 -11 17 -28 81 -2
80 32 -1 6 -9 2 -20 -11 -18 -22 -20 -22 -50 -7 -17 9 -41 14 -53 11 -12 -3
-16 -3 -9 0 14 7 6 24 -12 24 -6 0 -17 -5 -24 -12z"/>
<path d="M3665 3930 c-3 -5 -1 -10 4 -10 6 0 11 5 11 10 0 6 -2 10 -4 10 -3 0
-8 -4 -11 -10z"/>
<path d="M1255 3843 c-6 -18 -5 -53 2 -36 2 7 3 15 1 17 -2 3 5 11 16 19 15
11 16 14 3 14 -9 0 -19 -7 -22 -14z"/>
<path d="M1222 3795 c-17 -37 -14 -45 4 -12 9 16 14 31 11 33 -2 2 -9 -7 -15
-21z"/>
<path d="M1226 3748 l-17 -33 20 24 c18 20 27 41 18 41 -1 0 -11 -15 -21 -32z"/>
<path d="M1606 4322 c-3 -5 1 -9 9 -9 8 0 12 4 9 9 -3 4 -7 8 -9 8 -2 0 -6 -4
-9 -8z"/>
<path d="M3558 4258 c8 -9 11 -22 7 -28 -3 -5 -4 -10 -1 -10 3 0 11 10 17 23
6 12 8 19 4 15 -5 -4 -15 -2 -24 5 -14 10 -14 10 -3 -5z"/>
<path d="M3276 3883 c27 -50 51 -90 53 -88 7 7 -62 145 -81 162 -12 11 -1 -18
28 -74z"/>
<path d="M1450 3900 c-33 -7 -54 -19 -78 -47 -45 -52 -48 -55 -54 -81 -8 -29
9 -29 17 1 11 35 53 86 85 102 48 25 129 19 220 -17 l82 -32 -79 -21 c-168
-45 -214 -92 -253 -257 -65 -274 -75 -580 -29 -816 18 -91 20 -51 4 79 -29
235 -14 503 41 724 14 55 36 119 49 141 28 48 54 65 48 30 -5 -24 8 -80 65
-281 60 -209 100 -397 112 -520 6 -60 15 -146 19 -191 6 -61 18 -102 49 -170
49 -110 61 -170 51 -255 -8 -65 -1 -136 25 -264 31 -155 38 -687 10 -860 -8
-49 -19 -214 -24 -365 -6 -151 -15 -365 -19 -475 -6 -122 -6 -204 0 -210 5 -5
9 8 10 35 0 25 2 54 4 65 2 10 9 179 15 375 10 344 20 500 40 625 6 33 10 141
10 240 l0 179 58 -55 c87 -86 298 -259 387 -320 43 -30 83 -57 88 -60 5 -3
-15 -55 -43 -114 -45 -95 -173 -458 -185 -525 -2 -14 -9 -49 -15 -78 -19 -89
-4 -83 17 8 17 72 82 298 89 308 2 2 59 -17 129 -43 69 -25 131 -45 137 -43
12 4 -150 69 -219 87 l-43 12 29 78 c56 155 113 272 135 281 12 4 39 13 61 20
22 7 91 37 154 67 63 29 126 55 140 58 14 2 45 18 69 35 42 29 43 30 36 8 l-7
-23 22 20 c12 10 33 19 46 20 12 0 31 8 41 17 11 9 31 19 45 23 15 4 32 17 38
29 7 12 27 30 45 40 18 10 45 37 61 61 15 24 40 56 56 72 16 15 29 31 29 35 0
4 14 27 30 52 17 24 37 61 46 81 8 21 17 36 19 34 1 -2 -5 -51 -15 -109 -19
-109 -44 -388 -56 -620 -3 -74 -10 -198 -14 -275 -4 -77 -6 -183 -5 -235 1
-52 3 -157 4 -232 0 -77 5 -138 10 -138 6 0 9 125 8 308 -2 383 27 887 70
1197 15 113 20 127 79 240 58 112 94 213 124 344 13 57 21 200 26 471 2 103 9
190 18 230 9 36 16 92 16 125 0 50 4 62 20 73 12 7 18 17 15 23 -4 5 -2 15 3
22 8 9 3 12 -16 14 -16 1 -33 11 -42 24 -8 13 -28 38 -43 56 -26 30 -29 41
-36 145 -6 88 -13 123 -31 158 -13 25 -25 39 -27 32 -3 -6 -9 -10 -14 -6 -12
7 -12 5 7 -50 10 -29 19 -43 24 -36 5 8 9 5 13 -9 3 -12 1 -19 -3 -16 -5 3
-10 -2 -12 -11 -2 -9 -15 14 -29 52 l-27 67 47 32 c134 91 220 123 336 126 57
1 58 1 26 11 -24 6 -54 6 -95 -2 -34 -6 -70 -12 -81 -14 -26 -4 -77 -30 -149
-78 -33 -22 -71 -42 -86 -45 -44 -8 -96 23 -130 78 -37 61 -60 67 -159 44
-204 -47 -231 -45 -322 26 -53 43 -68 42 -69 -6 -1 -30 -22 -62 -60 -90 -54
-40 -105 -35 -246 26 -65 28 -146 58 -179 67 l-61 15 -109 -37 c-95 -33 -116
-37 -164 -31 -68 9 -159 36 -268 81 -93 39 -147 47 -213 34z m1363 -74 c46
-35 117 -66 152 -66 17 0 71 11 120 25 146 40 175 34 217 -44 11 -20 34 -39
61 -51 38 -17 47 -28 71 -82 25 -56 68 -209 62 -216 -2 -1 -23 5 -47 13 -100
36 -411 27 -516 -14 -54 -21 -106 -68 -98 -89 3 -8 3 -22 0 -31 -4 -13 -21
-16 -100 -16 -93 0 -95 0 -95 23 0 35 -50 78 -111 96 -89 27 -316 66 -382 66
-42 0 -75 -7 -106 -22 -59 -28 -176 -146 -191 -193 -11 -32 -15 -36 -38 -31
-64 13 -156 25 -160 21 -9 -8 46 -24 107 -31 59 -6 61 -8 61 -35 0 -32 -1 -33
-50 -20 -19 6 -54 15 -76 20 -40 11 -42 12 -54 72 -9 42 -10 63 -3 67 6 4 12
44 14 89 2 44 1 79 -2 77 -4 -2 -6 7 -5 20 0 13 4 22 9 19 4 -2 7 5 7 17 0 12
5 30 10 40 8 15 7 18 -2 15 -15 -6 -44 -63 -58 -113 -5 -20 -5 -30 1 -27 5 4
9 13 9 22 0 9 3 13 7 9 10 -10 12 -36 3 -36 -11 0 -9 -74 3 -81 6 -4 6 -13 0
-23 -7 -13 -14 2 -27 61 -10 43 -27 100 -37 126 -11 27 -16 54 -12 61 22 38
77 95 86 89 5 -3 7 -2 4 3 -3 5 25 40 63 78 52 51 74 66 88 62 55 -18 157 -34
190 -30 20 2 77 18 125 35 118 42 116 42 392 -75 70 -30 123 -33 171 -10 43
21 94 81 94 111 0 29 4 29 43 -1z m-1099 -68 c-32 -29 -83 -79 -113 -110 -30
-32 -58 -58 -62 -58 -10 0 -22 115 -14 139 8 26 152 79 218 80 27 1 26 -1 -29
-51z m1776 -148 c0 -13 -1 -13 -10 0 -5 8 -10 22 -10 30 0 13 1 13 10 0 5 -8
10 -22 10 -30z m19 -139 c5 -24 6 -39 1 -35 -8 10 -25 92 -16 84 2 -3 9 -25
15 -49z m-1429 -61 c-20 -13 -33 -13 -25 0 3 6 14 10 23 10 15 0 15 -2 2 -10z
m335 -26 c126 -23 174 -42 196 -78 10 -17 19 -41 19 -53 0 -13 2 -23 4 -23 2
0 28 5 57 10 56 11 139 4 139 -11 0 -5 -26 -9 -57 -8 -32 1 -74 -2 -94 -6
l-36 -7 -11 -76 c-23 -150 -121 -296 -238 -355 -125 -63 -327 -60 -425 6 -62
42 -89 94 -106 203 -8 54 -19 107 -24 117 -11 21 -3 58 27 117 41 83 130 152
228 176 60 16 200 10 321 -12z m1048 7 c44 -14 111 -71 133 -113 30 -57 26
-204 -7 -323 -15 -54 -82 -117 -156 -145 -47 -18 -78 -23 -159 -23 -141 1
-202 20 -270 85 -30 28 -54 56 -54 62 0 6 17 -8 39 -32 21 -23 65 -54 97 -70
55 -25 69 -27 184 -27 119 0 128 1 185 30 97 49 145 146 145 293 0 196 -71
255 -322 268 -216 10 -346 -17 -397 -82 -39 -49 -19 -190 43 -314 29 -57 31
-64 16 -55 -25 16 -5 -18 40 -68 77 -85 125 -102 286 -102 131 0 131 0 202 36
l70 36 -4 -31 c-2 -17 -8 -103 -14 -191 -6 -88 -14 -185 -19 -215 -5 -30 -7
-63 -5 -72 1 -10 -1 -18 -5 -18 -5 0 -8 -15 -8 -32 0 -37 -38 -141 -53 -146
-6 -2 -10 -11 -10 -20 0 -15 2 -15 10 -2 9 14 15 7 11 -15 -1 -5 4 -3 13 5 16
16 78 253 64 244 -11 -7 -10 -3 7 112 9 54 18 167 21 249 4 114 9 154 21 165
13 13 14 -1 12 -125 -2 -77 -5 -144 -7 -149 -3 -5 -6 -63 -7 -130 -2 -121 -12
-199 -24 -192 -3 2 -7 -15 -7 -38 -2 -75 -68 -232 -154 -368 -22 -34 -40 -58
-40 -53 0 6 -5 2 -11 -8 -5 -9 -7 -22 -4 -27 4 -6 1 -9 -7 -8 -7 2 -12 -3 -10
-10 4 -21 -26 -82 -65 -133 -47 -62 -56 -55 -10 8 19 26 42 64 51 83 l17 35
-28 -34 c-15 -18 -49 -72 -74 -119 -46 -86 -71 -114 -63 -70 4 21 4 21 -4 3
-5 -11 -7 -26 -5 -32 3 -8 -3 -13 -13 -13 -11 0 -34 -17 -52 -37 l-32 -38 21
43 c11 23 26 42 33 42 6 0 5 4 -3 9 -10 7 -20 -3 -38 -40 -24 -47 -95 -115
-80 -76 8 22 1 21 -26 -3 -12 -11 -27 -18 -33 -16 -6 2 -21 -2 -32 -10 -11 -8
-28 -11 -38 -7 -10 4 -15 2 -11 -3 3 -6 -3 -15 -14 -22 -15 -10 -19 -10 -19 0
0 8 -3 9 -8 3 -4 -6 -19 -16 -34 -22 -22 -10 -28 -10 -28 0 0 7 -5 5 -10 -4
-7 -12 -27 -17 -79 -18 -39 -1 -72 3 -76 9 -3 5 -14 10 -23 9 -11 0 -12 -3 -4
-6 6 -2 12 -9 12 -15 0 -11 -32 -3 -83 23 -21 10 -44 19 -52 19 -8 0 -15 5
-15 12 0 6 -3 8 -7 5 -3 -4 -12 1 -19 11 -13 16 -13 16 -14 0 0 -42 -56 1 -81
63 -11 26 -18 36 -18 24 -1 -19 31 -89 48 -108 4 -4 23 -10 43 -12 43 -5 123
-39 133 -55 6 -9 10 -9 17 1 7 11 11 11 15 2 6 -16 43 -17 43 -2 0 8 4 8 13 1
7 -6 28 -7 57 -2 51 9 65 5 29 -9 -13 -5 -53 -21 -89 -36 -92 -39 -137 -47
-153 -25 -7 9 -47 40 -89 69 -81 54 -374 298 -418 347 -17 20 -19 24 -5 14 11
-8 24 -18 30 -23 5 -4 53 -39 105 -79 204 -154 235 -177 238 -173 2 2 -2 13
-10 24 -8 12 -17 18 -21 15 -9 -9 -29 36 -23 51 3 8 -1 27 -9 42 l-15 28 0
-28 c0 -19 4 -26 12 -21 8 5 9 2 5 -10 -4 -10 -7 -23 -7 -29 0 -7 -12 2 -27
18 -16 16 -27 32 -26 36 1 3 -4 6 -11 6 -13 0 -100 56 -125 81 -8 7 -43 32
-78 54 -55 35 -63 44 -63 71 -1 100 -21 302 -36 362 -11 48 -17 117 -18 220
l-1 150 -47 108 c-46 104 -48 114 -57 245 -10 133 -34 301 -47 337 -8 19 -15
20 104 -14 l72 -22 0 -47 c0 -68 26 -160 58 -207 56 -80 148 -117 292 -117 97
0 137 10 223 55 114 60 221 218 235 349 9 77 27 90 117 84 52 -3 60 -7 66 -27
43 -146 61 -199 70 -199 7 0 8 7 4 18 -59 144 -75 256 -45 317 20 39 83 73
157 85 79 12 398 5 446 -9z m-257 -12 c3 -5 33 -7 66 -4 73 7 104 0 88 -20
-11 -13 3 -22 44 -29 6 -1 21 -7 33 -14 13 -7 24 -8 28 -3 3 5 -4 12 -15 16
-11 3 -20 13 -20 21 0 8 -5 14 -11 14 -5 0 -7 -4 -4 -10 10 -16 -11 -12 -25 5
-11 13 -7 14 30 10 72 -9 110 -37 146 -105 24 -48 25 -215 0 -279 -40 -108
-119 -158 -261 -168 -154 -11 -259 29 -329 124 -44 60 -95 198 -103 278 -5 56
-3 63 22 94 37 43 59 51 190 70 71 11 114 10 121 0z m439 -159 c-5 -8 -11 -8
-17 -2 -6 6 -7 16 -3 22 5 8 11 8 17 2 6 -6 7 -16 3 -22z m-184 -1081 c-5 -13
-10 -19 -10 -12 -1 15 10 45 15 40 3 -2 0 -15 -5 -28z"/>
<path d="M1663 3648 c-5 -7 -20 -39 -33 -71 -22 -57 -40 -81 -40 -55 0 8 9 31
20 53 24 47 25 51 5 35 -8 -7 -15 -19 -15 -27 0 -8 -4 -12 -9 -9 -5 4 -7 -4
-4 -16 4 -19 3 -20 -6 -8 -9 12 -10 8 -5 -15 12 -56 22 -63 34 -28 7 20 16 30
23 26 7 -3 9 -3 5 2 -4 4 2 23 13 42 12 19 19 37 15 40 -3 3 -1 14 5 24 11 22
6 25 -8 7z"/>
<path d="M2095 3381 c-77 -19 -163 -83 -203 -149 -24 -43 -27 -56 -26 -142 1
-175 49 -274 156 -320 44 -19 71 -24 159 -24 105 -1 106 -1 191 42 60 29 99
56 128 89 109 124 155 350 87 429 -29 34 -131 61 -277 74 -130 11 -172 11
-215 1z m208 -29 c7 -6 27 -13 43 -16 17 -3 61 -17 97 -31 47 -17 67 -21 67
-12 0 8 4 7 10 -3 5 -8 10 -11 10 -6 0 6 6 2 13 -8 8 -11 20 -17 27 -14 13 4
12 6 -33 43 -7 6 -24 10 -39 11 -58 2 -68 4 -68 15 0 6 7 9 15 5 8 -3 15 0 15
7 0 7 3 8 8 2 4 -5 22 -11 40 -13 36 -2 48 -11 76 -54 18 -28 24 -127 10 -184
-12 -51 -56 -154 -65 -154 -16 0 -10 23 27 114 20 48 33 90 30 93 -3 3 -8 -3
-12 -13 -9 -29 -54 -137 -65 -156 -6 -12 -5 -25 3 -39 12 -19 8 -25 -42 -71
-126 -117 -314 -150 -452 -80 -98 51 -138 134 -140 293 -1 70 3 96 21 131 26
55 71 99 136 133 47 24 57 26 153 22 56 -3 108 -10 115 -15z m87 -3 c26 -15
29 -18 10 -13 -14 4 -38 12 -55 19 -23 10 -25 13 -10 14 11 0 36 -9 55 -20z"/>
<path d="M2377 3263 c-4 -4 -27 -6 -50 -5 -23 2 -66 -2 -96 -8 -57 -11 -291
-118 -291 -133 0 -14 61 3 130 38 l65 33 17 -39 c19 -45 16 -47 -30 -19 -39
24 -49 25 -49 5 0 -8 2 -13 4 -11 3 2 20 -2 39 -10 20 -8 54 -17 77 -20 23 -2
56 -7 72 -9 17 -3 57 0 89 6 32 6 67 11 77 12 27 2 24 17 -3 17 -13 -1 -50 -7
-83 -15 -80 -19 -81 -19 -46 11 23 19 31 34 30 57 l-1 32 -8 -33 c-10 -43 -19
-52 -66 -62 -56 -13 -79 4 -97 74 -5 21 129 41 169 26 15 -6 58 -35 97 -65 69
-54 87 -63 87 -47 0 7 -113 96 -150 118 -8 5 -40 12 -70 15 l-55 6 63 2 c49 1
73 -4 109 -23 25 -14 53 -22 62 -19 13 4 14 3 1 -6 -8 -5 -12 -12 -10 -14 47
-38 80 -57 80 -47 0 8 3 10 7 7 10 -11 31 25 25 45 -7 29 -23 21 -17 -9 l5
-28 -11 28 c-13 34 -32 36 -23 2 4 -16 2 -25 -6 -25 -6 0 -8 4 -5 10 3 6 -1 7
-9 4 -19 -7 -20 -3 -4 31 6 14 17 25 24 25 8 0 11 6 8 15 -6 15 -26 22 -21 8
1 -5 -1 -9 -5 -10 -12 -4 -38 8 -34 16 2 3 -10 6 -27 7 -18 1 -39 4 -48 8 -8
4 -18 3 -22 -1z m84 -35 c22 -6 39 -15 39 -19 0 -8 -35 1 -80 19 -34 15 -6 15
41 0z"/>
<path d="M1976 3248 c3 -5 10 -6 15 -3 13 9 11 12 -6 12 -8 0 -12 -4 -9 -9z"/>
<path d="M1999 3193 c-13 -16 -12 -17 4 -4 16 13 21 21 13 21 -2 0 -10 -8 -17
-17z"/>
<path d="M2185 3190 c-11 -5 -14 -9 -6 -9 7 -1 11 -7 8 -16 -8 -19 58 -18 75
2 16 20 2 28 -28 14 -29 -13 -47 -6 -24 9 18 12 2 12 -25 0z"/>
<path d="M2290 3170 c0 -15 -8 -22 -30 -26 -16 -4 -30 -10 -30 -15 0 -11 3
-11 34 1 29 11 52 45 36 55 -5 3 -10 -3 -10 -15z"/>
<path d="M2197 3129 c7 -7 15 -10 18 -7 3 3 -2 9 -12 12 -14 6 -15 5 -6 -5z"/>
<path d="M2060 3100 c14 -4 34 -8 45 -8 l20 -1 -20 9 c-11 5 -31 8 -45 8 l-25
0 25 -8z"/>
<path d="M2135 3080 c3 -5 8 -10 11 -10 2 0 4 5 4 10 0 6 -5 10 -11 10 -5 0
-7 -4 -4 -10z"/>
<path d="M2406 2892 c-3 -5 1 -15 8 -21 11 -10 14 -9 12 3 -3 21 -13 29 -20
18z"/>
<path d="M2815 3137 c3 -31 12 -76 21 -100 9 -23 17 -53 18 -67 6 -48 19 -105
28 -123 18 -36 17 -11 -2 54 -11 35 -20 65 -20 67 0 1 11 -5 26 -14 18 -12 28
-14 36 -6 16 16 0 36 -17 22 -20 -17 -49 35 -65 113 -19 96 -31 123 -25 54z"/>
<path d="M1845 2841 c-3 -5 -2 -12 3 -15 5 -3 9 1 9 9 0 17 -3 19 -12 6z"/>
<path d="M2900 2715 c0 -19 4 -35 10 -35 5 0 9 16 7 35 -3 45 -17 45 -17 0z"/>
<path d="M2444 2684 c-42 -71 -39 -116 9 -160 21 -19 47 -34 61 -34 13 0 32
-3 42 -7 12 -4 15 -3 10 5 -4 7 -21 12 -38 12 -39 0 -98 57 -98 94 0 15 12 49
26 77 33 66 24 75 -12 13z"/>
<path d="M2970 2723 c0 -5 8 -18 19 -27 10 -9 24 -36 31 -60 16 -58 -5 -110
-52 -130 -85 -36 -86 -37 -45 -31 59 9 83 24 101 61 30 63 17 133 -33 178 -12
11 -21 15 -21 9z"/>
<path d="M2396 2688 c3 -5 -3 -20 -14 -36 -11 -15 -29 -47 -42 -71 -14 -29
-25 -40 -30 -32 -5 10 -9 8 -13 -4 -4 -9 -3 -13 3 -10 16 10 12 -1 -21 -66
-17 -34 -28 -63 -26 -66 3 -2 38 57 77 131 40 75 76 136 80 136 5 0 10 6 13
14 4 10 0 14 -13 13 -10 -1 -16 -5 -14 -9z"/>
<path d="M2895 2648 c-13 -41 -50 -113 -65 -125 -8 -6 -12 -14 -8 -18 11 -11
75 83 83 121 7 41 0 57 -10 22z"/>
<path d="M3066 2645 c8 -34 12 -41 20 -33 3 4 -2 19 -10 35 l-16 28 6 -30z"/>
<path d="M2494 2575 c-4 -8 -11 -12 -17 -8 -6 4 -7 1 -2 -7 6 -10 11 -10 20 3
7 9 16 13 20 9 5 -4 5 -1 1 6 -9 16 -15 15 -22 -3z"/>
<path d="M3080 2569 c0 -3 6 -19 14 -35 8 -16 36 -100 63 -187 26 -87 49 -151
51 -142 2 8 -5 43 -16 78 -11 34 -26 85 -33 112 -7 28 -19 61 -26 75 -7 14
-13 32 -13 40 0 14 -39 72 -40 59z"/>
<path d="M2548 2550 c-10 -6 -18 -18 -18 -25 0 -17 16 -20 25 -5 3 6 30 10 59
10 40 0 60 -6 81 -22 17 -13 26 -16 23 -8 -13 41 -130 75 -170 50z"/>
<path d="M2860 2500 c-63 -65 -86 -73 -141 -44 -17 8 -33 14 -35 11 -9 -9 50
-39 86 -44 34 -5 41 -1 94 50 31 31 66 57 78 59 33 5 35 28 3 28 -21 0 -42
-16 -85 -60z"/>
<path d="M2646 2405 c-29 -27 -32 -35 -13 -34 14 0 63 59 49 59 -5 0 -21 -11
-36 -25z"/>
<path d="M2231 2413 c-1 -6 -4 -20 -7 -30 -5 -17 -5 -17 6 0 6 10 9 23 6 30
-3 9 -5 9 -5 0z"/>
<path d="M2696 2409 c-2 -8 -8 -32 -12 -54 -4 -22 -8 -42 -10 -45 -1 -3 -5
-15 -9 -27 -4 -13 -11 -21 -15 -18 -10 6 7 74 22 93 6 7 9 15 6 18 -3 2 -13
-12 -23 -33 -16 -33 -19 -35 -25 -18 -7 18 -8 17 -15 -7 -4 -16 -11 -25 -16
-22 -5 3 -9 -4 -9 -15 0 -27 20 -27 27 -1 8 29 22 24 20 -7 -1 -19 3 -28 16
-31 12 -2 17 3 17 17 0 11 5 23 11 27 8 4 9 -4 5 -27 l-6 -34 17 33 c14 27 15
35 4 41 -11 7 -11 19 -2 61 10 48 8 83 -3 49z"/>
<path d="M2774 2398 c-13 -20 -22 -88 -13 -94 5 -3 9 -13 9 -22 0 -15 -2 -15
-10 -2 -6 9 -10 10 -10 3 0 -6 5 -15 10 -18 6 -3 10 -13 10 -21 0 -8 -4 -14
-10 -14 -5 0 -10 8 -10 18 -1 15 -2 15 -11 -2 -9 -14 -8 -20 2 -27 23 -14 37
-10 63 16 30 29 36 31 47 14 4 -7 17 -14 29 -16 11 -2 40 -12 62 -23 48 -23
62 -20 24 5 -14 10 -26 24 -26 32 0 13 2 13 17 2 14 -13 15 -12 6 6 -6 11 -16
31 -22 45 -10 23 -11 22 -5 -9 4 -23 3 -31 -5 -27 -6 4 -11 14 -11 22 0 8 -4
14 -9 14 -5 0 -7 -9 -4 -20 3 -11 9 -20 14 -20 5 0 9 -8 9 -17 0 -14 -2 -15
-9 -5 -4 8 -12 14 -17 15 -5 1 -8 6 -6 11 1 4 -3 14 -9 22 -7 8 -9 17 -5 21 3
3 -1 17 -10 31 -21 33 -14 36 32 13 43 -21 71 -32 94 -37 8 -2 20 -10 26 -18
6 -9 14 -13 17 -9 4 3 7 1 7 -5 0 -7 5 -12 10 -12 37 0 -36 57 -84 66 -14 2
-53 20 -86 40 -58 34 -80 37 -80 11 0 -7 4 -6 10 3 5 8 10 12 12 10 13 -18 28
-66 28 -91 0 -18 4 -28 10 -24 6 3 10 3 11 -2 0 -4 2 -17 4 -27 3 -16 -1 -14
-21 9 -14 16 -23 34 -20 40 2 7 0 18 -4 26 -6 9 -8 1 -7 -21 1 -24 -2 -34 -11
-32 -7 1 -17 -9 -22 -23 -14 -38 -18 -31 -13 28 4 41 2 49 -7 37 -10 -12 -11
-10 -6 10 3 14 6 29 6 33 0 5 4 6 9 3 4 -3 6 6 3 19 -5 28 -8 30 -18 13z"/>
<path d="M2506 2376 c-33 -12 -61 -27 -64 -33 -5 -18 13 -16 29 3 7 8 20 13
29 11 9 -2 28 2 41 9 38 21 39 17 12 -31 -13 -25 -30 -45 -36 -45 -8 0 -7 -4
2 -9 7 -5 11 -13 8 -18 -4 -6 4 -8 18 -5 15 2 25 11 25 22 0 9 11 30 25 46 25
29 31 44 17 44 -8 0 -31 -32 -49 -70 -7 -15 -12 -19 -12 -10 -1 9 7 32 18 53
26 50 10 58 -63 33z"/>
<path d="M2710 2379 c0 -5 5 -7 10 -4 6 3 10 8 10 11 0 2 -4 4 -10 4 -5 0 -10
-5 -10 -11z"/>
<path d="M2243 2363 c-3 -10 -14 -37 -24 -60 -10 -24 -14 -43 -10 -43 8 0 35
56 46 98 7 26 -3 30 -12 5z"/>
<path d="M2809 2358 c0 -7 -2 -23 -5 -35 -2 -12 0 -25 6 -28 5 -3 9 13 8 35 0
36 -7 57 -9 28z"/>
<path d="M2708 2335 c-3 -14 -1 -25 3 -25 5 0 9 4 9 9 0 5 3 16 6 25 3 9 2 16
-4 16 -5 0 -12 -11 -14 -25z"/>
<path d="M2398 2343 c-10 -2 -18 -8 -18 -13 0 -5 -7 -7 -15 -4 -8 4 -15 1 -15
-6 0 -6 5 -8 10 -5 6 3 10 2 10 -4 0 -5 -4 -11 -9 -13 -5 -1 -18 -19 -30 -38
-16 -27 -21 -30 -21 -15 0 12 -8 3 -20 -24 -11 -24 -20 -49 -20 -57 0 -17 26
-19 36 -3 4 8 9 8 13 1 4 -6 61 -17 127 -26 66 -8 157 -24 202 -36 46 -11 86
-18 91 -16 10 6 199 25 274 27 46 2 60 -2 71 -17 8 -10 18 -15 22 -11 14 13
-28 42 -123 85 -102 47 -119 49 -186 26 -45 -15 -48 -15 -109 10 -84 33 -175
31 -270 -8 -52 -22 -71 -25 -87 -17 -15 9 -23 7 -37 -7 -17 -16 -17 -16 -10 3
5 11 11 28 13 37 3 10 9 16 13 13 4 -3 20 14 36 36 15 22 42 51 58 65 30 23
29 26 -6 17z m295 -157 c56 -23 60 -24 103 -9 55 19 102 13 174 -19 l54 -25
-104 -7 c-58 -4 -126 -12 -151 -16 -36 -7 -66 -4 -141 15 -53 13 -125 26 -162
30 -36 4 -66 11 -66 15 0 13 112 38 175 39 42 0 78 -7 118 -23z"/>
<path d="M2520 2331 c-6 -12 -7 -21 -1 -21 10 0 24 30 17 37 -2 3 -9 -5 -16
-16z"/>
<path d="M3440 2346 c0 -2 8 -10 18 -17 15 -13 16 -12 3 4 -13 16 -21 21 -21
13z"/>
<path d="M2487 2333 c-2 -5 -7 -21 -11 -36 -5 -21 -4 -27 5 -21 9 5 10 2 6 -9
-3 -10 -2 -17 3 -17 5 0 8 20 7 45 -2 47 -3 50 -10 38z"/>
<path d="M3526 2325 c-9 -26 -7 -32 5 -12 6 10 9 21 6 23 -2 3 -7 -2 -11 -11z"/>
<path d="M2316 2304 c-11 -28 -6 -39 9 -20 8 11 15 23 15 28 0 14 -18 9 -24
-8z"/>
<path d="M2419 2288 c-7 -18 -15 -37 -17 -43 -3 -5 3 -3 13 5 17 14 18 13 12
-2 -8 -22 3 -23 29 -4 15 12 17 17 7 27 -10 10 -13 10 -13 1 0 -7 -4 -12 -10
-12 -5 0 -7 13 -3 30 7 40 -2 38 -18 -2z"/>
<path d="M3080 2311 c0 -6 4 -13 10 -16 6 -3 7 1 4 9 -7 18 -14 21 -14 7z"/>
<path d="M2391 2292 c-6 -12 -11 -27 -11 -34 1 -7 8 0 16 15 9 16 13 31 11 34
-3 2 -10 -4 -16 -15z"/>
<path d="M2450 2299 c0 -5 5 -7 10 -4 6 3 10 8 10 11 0 2 -4 4 -10 4 -5 0 -10
-5 -10 -11z"/>
<path d="M2965 2293 c8 -47 44 -111 74 -132 17 -12 31 -18 31 -12 0 23 22 10
31 -19 10 -28 29 -41 29 -20 0 6 -3 10 -7 10 -5 0 -9 10 -10 23 -2 27 -43 121
-50 114 -2 -3 3 -19 11 -36 23 -43 20 -62 -4 -23 -11 18 -20 41 -20 52 0 11
-4 20 -9 20 -5 0 -7 -10 -3 -22 3 -14 2 -19 -6 -14 -7 4 -12 15 -12 25 0 10
-8 25 -17 32 -15 11 -16 11 -5 -1 6 -8 12 -24 12 -36 0 -13 5 -26 10 -29 6 -3
10 -13 10 -21 0 -27 -19 -4 -30 34 -5 21 -16 46 -24 57 -15 20 -15 20 -11 -2z
m100 -113 c5 -17 4 -22 -3 -15 -5 6 -13 21 -17 35 -5 17 -4 22 3 15 5 -5 13
-21 17 -35z"/>
<path d="M2273 2263 c-30 -44 -45 -88 -38 -115 5 -19 1 -29 -14 -40 -24 -17
-51 -77 -50 -110 1 -19 2 -18 9 7 13 52 30 86 38 81 5 -3 16 10 25 29 9 19 12
37 8 40 -5 2 5 32 21 65 33 64 33 90 1 43z"/>
<path d="M2720 2269 c0 -5 5 -7 10 -4 6 3 10 8 10 11 0 2 -4 4 -10 4 -5 0 -10
-5 -10 -11z"/>
<path d="M3080 2277 c0 -23 31 -78 41 -71 8 4 9 -3 4 -25 -4 -19 -3 -31 4 -31
6 0 8 -21 5 -55 -5 -67 1 -71 14 -10 13 60 -1 122 -38 165 -17 19 -30 31 -30
27z m38 -62 c-3 -3 -9 2 -12 12 -6 14 -5 15 5 6 7 -7 10 -15 7 -18z"/>
<path d="M1831 2233 c-1 -18 4 -33 9 -33 12 0 12 17 0 45 -7 17 -9 15 -9 -12z"/>
<path d="M2337 2224 c-20 -27 -17 -40 6 -31 14 5 30 57 18 57 -3 0 -14 -12
-24 -26z"/>
<path d="M2370 2220 c0 -5 5 -10 10 -10 6 0 10 5 10 10 0 6 -4 10 -10 10 -5 0
-10 -4 -10 -10z"/>
<path d="M1861 2213 c-1 -6 -4 -19 -8 -29 -4 -12 -3 -15 6 -9 10 6 12 -8 10
-61 -2 -38 -1 -73 2 -79 4 -5 7 -39 8 -75 2 -36 6 -83 11 -105 6 -31 7 -22 4
35 -2 41 -7 121 -10 177 -5 86 -20 185 -23 146z"/>
<path d="M1890 2154 c0 -8 5 -12 10 -9 6 4 8 11 5 16 -9 14 -15 11 -15 -7z"/>
<path d="M1840 2149 c0 -5 5 -7 10 -4 6 3 10 8 10 11 0 2 -4 4 -10 4 -5 0 -10
-5 -10 -11z"/>
<path d="M2300 2140 c-8 -5 -19 -6 -25 -3 -5 4 -7 3 -3 -2 4 -4 3 -14 -4 -22
-21 -26 0 -24 27 2 27 28 30 40 5 25z"/>
<path d="M1909 2135 c-5 -8 -5 -41 0 -64 2 -8 31 22 31 33 0 6 -4 5 -9 -3 -7
-11 -10 -7 -13 15 -2 16 -6 25 -9 19z"/>
<path d="M1851 2114 c0 -11 3 -14 6 -6 3 7 2 16 -1 19 -3 4 -6 -2 -5 -13z"/>
<path d="M3397 2090 c-16 -90 -17 -116 -2 -60 8 30 14 66 12 80 -2 17 -5 11
-10 -20z"/>
<path d="M2432 2074 c68 -58 148 -104 182 -104 14 0 26 -4 26 -9 0 -4 -11 -6
-25 -3 -28 5 -33 -14 -14 -51 12 -21 49 -56 60 -57 4 0 10 15 14 33 7 29 8 30
12 8 4 -18 7 -21 13 -10 5 7 12 10 16 6 4 -3 2 -13 -4 -20 -7 -8 -9 -17 -5
-20 13 -14 20 -6 21 21 0 15 1 32 2 37 5 21 -1 36 -10 30 -6 -4 -8 -11 -5 -16
4 -5 1 -9 -4 -9 -6 0 -11 5 -11 10 0 20 -28 10 -34 -12 -7 -22 -7 -23 -17 -3
-8 17 -8 15 -4 -7 7 -37 1 -35 -24 7 l-20 35 22 -1 c12 0 38 2 57 5 62 10 73
1 67 -55 -5 -37 -3 -49 7 -49 8 0 16 7 20 15 3 8 15 15 27 15 14 0 24 10 32
30 6 17 18 30 26 30 18 0 6 13 -14 16 -8 1 -15 -2 -15 -7 0 -6 -4 -8 -9 -5 -5
3 -9 0 -8 -7 1 -29 -4 -47 -12 -47 -5 0 -8 11 -6 25 1 14 -2 25 -6 25 -5 0 -9
-13 -9 -29 0 -17 -4 -33 -10 -36 -5 -3 -9 9 -8 30 1 19 -2 38 -6 42 -4 4 21
13 55 20 77 15 174 77 201 126 8 16 7 17 -11 8 -11 -6 -26 -19 -33 -29 -18
-26 -88 -71 -128 -82 -143 -41 -243 -14 -404 110 -61 47 -64 35 -4 -16z"/>
<path d="M3412 2042 c-7 -32 -12 -64 -12 -72 0 -16 15 -4 15 13 0 7 4 31 9 55
7 38 10 41 24 30 12 -9 11 -6 -2 10 -11 12 -20 22 -21 22 0 0 -6 -26 -13 -58z"/>
<path d="M1951 2085 c-8 -33 -7 -55 1 -47 6 6 8 20 5 33 -2 13 -5 20 -6 14z"/>
<path d="M3367 2076 c-4 -10 -7 -25 -6 -34 0 -11 4 -9 10 7 5 13 8 29 6 35 -2
5 -6 2 -10 -8z"/>
<path d="M1921 2045 c-1 -17 -3 -18 -11 -5 -7 11 -10 0 -10 -38 0 -34 4 -51
10 -47 6 4 8 16 4 27 -3 12 -1 24 6 28 6 4 10 18 7 31 -3 19 -5 20 -6 4z"/>
<path d="M3326 2032 c-8 -16 -18 -63 -22 -105 -4 -52 -10 -74 -18 -70 -6 3 -8
3 -4 -1 3 -4 0 -26 -8 -48 -8 -23 -12 -43 -9 -46 5 -6 25 43 25 64 0 8 4 14 9
14 5 0 12 37 16 83 4 45 14 94 21 110 8 15 12 27 10 27 -3 0 -12 -13 -20 -28z"/>
<path d="M1994 2034 c3 -8 1 -36 -6 -62 -11 -42 -13 -45 -19 -22 -6 23 -7 22
-8 -8 -1 -19 3 -31 8 -27 6 3 13 -11 16 -32 11 -63 14 -61 13 7 0 36 5 78 11
93 16 40 14 67 -5 67 -11 0 -14 -5 -10 -16z"/>
<path d="M1940 2011 c0 -6 5 -13 10 -16 6 -3 10 1 10 9 0 9 -4 16 -10 16 -5 0
-10 -4 -10 -9z"/>
<path d="M1934 1923 c0 -40 4 -73 8 -73 10 0 8 87 -2 120 -5 17 -7 0 -6 -47z"/>
<path d="M2030 1970 c0 -11 5 -20 10 -20 6 0 10 -10 10 -22 0 -19 -2 -20 -11
-8 -8 12 -9 9 -5 -12 7 -29 -10 -49 -17 -21 -3 10 -6 0 -7 -22 -2 -22 -4 -44
-5 -50 -2 -5 -4 -14 -5 -20 -1 -5 -5 -1 -10 10 -8 18 -9 17 -9 -7 -1 -20 3
-26 13 -22 9 4 16 -3 19 -18 2 -13 5 5 6 40 0 39 5 62 12 62 8 0 10 -19 6 -62
-4 -37 -1 -95 7 -138 7 -41 11 -81 9 -87 -3 -7 0 -13 7 -13 9 0 11 12 6 43
-12 70 -15 269 -6 312 6 25 5 41 0 43 -6 2 -10 10 -10 18 0 8 -4 14 -10 14 -5
0 -10 -9 -10 -20z m17 -242 c-3 -7 -5 -2 -5 12 0 14 2 19 5 13 2 -7 2 -19 0
-25z"/>
<path d="M3287 1983 c-4 -3 -7 -16 -6 -27 0 -19 1 -19 10 3 10 24 8 36 -4 24z"/>
<path d="M3336 1969 c-11 -54 -13 -79 -6 -79 4 0 10 21 13 48 6 50 1 70 -7 31z"/>
<path d="M2147 1929 c-9 -21 -17 -45 -17 -52 0 -6 -5 -19 -11 -27 -8 -11 -9
-2 -4 35 3 29 2 45 -3 37 -4 -6 -9 -32 -11 -57 -3 -69 20 -56 47 26 27 78 26
100 -1 38z"/>
<path d="M3250 1951 c0 -10 -7 -24 -15 -31 -11 -9 -13 -28 -10 -76 5 -75 19
-112 27 -71 3 15 1 24 -3 21 -5 -3 -9 1 -10 8 -4 63 -3 90 3 94 9 6 9 4 11
-43 2 -38 17 -57 17 -20 0 14 3 33 7 43 4 11 3 15 -4 11 -16 -10 -25 21 -13
43 13 24 13 40 0 40 -5 0 -10 -8 -10 -19z"/>
<path d="M3367 1963 c-3 -5 -8 -26 -11 -48 -6 -38 -6 -39 5 -10 7 17 16 35 21
42 5 7 5 14 -1 17 -5 4 -12 3 -14 -1z"/>
<path d="M2082 1930 c0 -14 2 -19 5 -12 2 6 2 18 0 25 -3 6 -5 1 -5 -13z"/>
<path d="M3165 1913 c4 -10 10 -26 12 -35 3 -10 9 -18 14 -18 12 0 11 6 -6 40
-17 32 -32 41 -20 13z"/>
<path d="M2176 1837 c-16 -39 -35 -79 -41 -87 -7 -8 -15 -22 -19 -30 -3 -8 -3
1 0 20 4 19 12 42 19 50 7 8 16 26 19 40 5 19 2 17 -12 -9 -11 -19 -21 -30
-24 -25 -3 5 -4 5 -3 -1 1 -5 -2 -21 -7 -35 -7 -20 -11 -22 -18 -10 -9 13 -10
13 -10 0 0 -8 4 -21 9 -29 5 -8 6 -21 3 -30 -5 -12 -8 -10 -13 9 -5 18 -7 11
-7 -25 0 -27 2 -42 5 -32 2 9 9 17 14 17 5 0 9 6 9 14 0 8 3 16 8 18 12 5 62
87 62 102 0 8 5 18 12 22 11 7 9 -10 -8 -50 -5 -13 -4 -17 3 -13 16 10 34 67
21 67 -6 0 -7 7 -3 18 15 37 23 72 17 72 -4 0 -20 -33 -36 -73z"/>
<path d="M1911 1828 c-1 -42 4 -80 9 -83 6 -3 10 -15 10 -25 0 -10 9 -22 20
-25 14 -4 20 -15 19 -33 0 -27 0 -27 -11 -4 -13 25 -28 29 -28 6 0 -8 4 -13 9
-10 5 3 12 -1 15 -9 3 -8 10 -14 15 -13 5 2 16 -6 25 -17 13 -17 12 -11 -2 32
-9 29 -23 53 -29 53 -7 0 -13 9 -13 19 0 11 -7 26 -15 35 -18 18 -19 27 -2 24
7 -2 13 9 14 27 2 28 1 29 -6 5 -7 -22 -9 -19 -15 25 -12 77 -14 76 -15 -7z"/>
<path d="M2076 1881 c-3 -4 -8 -28 -11 -52 -7 -56 10 -39 19 19 6 40 3 52 -8
33z"/>
<path d="M3130 1884 c0 -3 5 -14 10 -25 8 -13 7 -19 0 -19 -6 0 -10 -8 -9 -17
4 -41 -2 -83 -11 -83 -5 0 -10 7 -10 15 0 8 -4 15 -10 15 -5 0 -10 -9 -10 -20
0 -11 7 -20 15 -20 8 0 15 -5 15 -12 0 -6 6 -3 14 7 8 11 13 22 11 25 -2 3 1
29 6 58 8 54 4 82 -12 82 -5 0 -9 -3 -9 -6z"/>
<path d="M1960 1865 c0 -8 2 -15 4 -15 2 0 6 7 10 15 3 8 1 15 -4 15 -6 0 -10
-7 -10 -15z"/>
<path d="M3337 1863 c-4 -3 -7 -11 -7 -17 0 -6 5 -5 12 2 6 6 9 14 7 17 -3 3
-9 2 -12 -2z"/>
<path d="M3180 1818 c0 -18 5 -40 10 -48 8 -13 10 -12 10 3 0 11 5 16 13 12 6
-4 4 0 -7 9 -12 9 -17 23 -13 36 3 11 1 20 -4 20 -5 0 -9 -15 -9 -32z"/>
<path d="M2251 1808 c-14 -39 -5 -51 9 -13 6 15 13 32 16 36 3 5 1 9 -4 9 -6
0 -15 -14 -21 -32z"/>
<path d="M1884 1783 c3 -18 9 -46 12 -63 3 -16 10 -32 15 -36 10 -6 8 6 -10
79 -12 48 -26 64 -17 20z"/>
<path d="M2092 1790 c0 -14 2 -19 5 -12 2 6 2 18 0 25 -3 6 -5 1 -5 -13z"/>
<path d="M2324 1788 c-4 -13 -13 -32 -21 -43 -15 -19 -15 -19 -10 3 3 13 3 21
-1 17 -4 -4 -7 -24 -7 -45 0 -44 2 -43 26 8 10 20 18 30 18 21 1 -9 -8 -36
-19 -60 -22 -50 -26 -74 -8 -63 7 5 9 2 6 -8 -4 -9 -9 -37 -12 -64 l-6 -49 15
50 c8 28 13 61 10 73 -3 13 3 48 15 78 23 62 24 68 10 59 -13 -8 -13 8 1 22 7
7 7 13 1 17 -6 3 -14 -4 -18 -16z"/>
<path d="M3062 1795 c0 -11 4 -33 8 -50 l8 -30 0 30 c0 17 -3 39 -8 50 l-9 20
1 -20z"/>
<path d="M2270 1789 c0 -5 5 -7 10 -4 6 3 10 8 10 11 0 2 -4 4 -10 4 -5 0 -10
-5 -10 -11z"/>
<path d="M3045 1682 c2 -57 6 -106 10 -110 9 -9 4 143 -6 182 -5 19 -6 -9 -4
-72z"/>
<path d="M1962 1740 c0 -19 2 -27 5 -17 2 9 2 25 0 35 -3 9 -5 1 -5 -18z"/>
<path d="M2260 1761 c0 -7 -6 -11 -13 -8 -14 5 -15 1 -22 -88 -5 -67 10 -57
18 12 3 22 10 51 17 63 6 12 9 24 6 28 -3 3 -6 0 -6 -7z"/>
<path d="M3203 1756 c-6 -8 -9 -24 -6 -36 4 -13 0 -26 -8 -31 -8 -5 -9 -9 -4
-9 19 0 39 19 42 40 2 14 -1 19 -8 14 -8 -4 -9 0 -4 15 7 24 5 26 -12 7z"/>
<path d="M1995 1715 c5 -49 25 -118 38 -131 3 -4 3 11 0 32 -3 22 -10 41 -14
44 -4 3 -12 28 -18 55 l-10 50 4 -50z"/>
<path d="M2380 1734 c-6 -14 -10 -31 -10 -38 0 -8 -7 -19 -15 -26 -9 -7 -15
-20 -13 -29 1 -9 -1 -22 -5 -28 -6 -9 -3 -11 7 -7 8 3 17 12 20 20 4 10 2 12
-5 8 -7 -4 -10 -1 -7 7 3 8 11 13 17 12 6 -2 11 0 12 5 3 27 7 51 14 75 9 34
-2 36 -15 1z"/>
<path d="M3165 1750 c3 -5 8 -10 11 -10 2 0 4 5 4 10 0 6 -5 10 -11 10 -5 0
-7 -4 -4 -10z"/>
<path d="M3007 1688 c-3 -35 -2 -67 2 -71 5 -5 6 3 4 17 -3 14 -1 26 4 26 6 0
9 20 9 45 -1 65 -12 55 -19 -17z"/>
<path d="M2202 1720 c0 -14 2 -19 5 -12 2 6 2 18 0 25 -3 6 -5 1 -5 -13z"/>
<path d="M2143 1700 c-6 -17 -8 -30 -3 -30 8 0 24 50 18 56 -2 2 -9 -10 -15
-26z"/>
<path d="M2991 1714 c0 -11 3 -14 6 -6 3 7 2 16 -1 19 -3 4 -6 -2 -5 -13z"/>
<path d="M3090 1710 c0 -5 5 -10 11 -10 5 0 7 5 4 10 -3 6 -8 10 -11 10 -2 0
-4 -4 -4 -10z"/>
<path d="M3072 1659 c0 -54 0 -54 10 -17 6 23 6 43 0 54 -7 12 -9 2 -10 -37z"/>
<path d="M2960 1681 c0 -11 5 -23 11 -27 8 -4 10 -28 6 -68 -3 -36 -1 -53 3
-41 11 25 12 82 4 124 -7 34 -24 42 -24 12z"/>
<path d="M3115 1689 c-4 -6 -5 -12 -2 -15 2 -3 7 2 10 11 7 17 1 20 -8 4z"/>
<path d="M2177 1683 c-4 -3 -6 -22 -6 -42 l1 -36 8 40 c8 42 8 49 -3 38z"/>
<path d="M2890 1680 c0 -5 4 -10 8 -10 5 0 7 -15 6 -32 -2 -18 -1 -25 2 -15 4
13 9 15 18 7 10 -8 12 -5 9 13 -5 23 -43 57 -43 37z"/>
<path d="M2448 1648 c-17 -33 -58 -146 -58 -160 0 -4 5 -8 10 -8 6 0 10 8 10
18 0 29 35 131 50 145 11 10 11 8 5 -8 -4 -11 -9 -42 -10 -70 -1 -27 -6 -67
-10 -87 -5 -24 -4 -38 2 -38 9 0 23 76 27 143 0 15 3 27 6 27 3 0 6 11 6 25 1
14 -2 25 -8 25 -5 0 -6 5 -3 10 3 6 2 10 -2 10 -5 0 -16 -15 -25 -32z"/>
<path d="M2390 1651 c-13 -26 -13 -34 2 -25 8 5 9 2 4 -12 -5 -10 -10 -37 -12
-59 l-5 -40 16 45 c36 106 36 107 18 85 -15 -20 -15 -20 -10 3 6 27 1 28 -13
3z"/>
<path d="M3132 1630 c-12 -25 -19 -34 -16 -21 4 14 2 21 -4 17 -18 -11 -21
-44 -4 -51 17 -6 32 10 32 37 0 9 5 18 11 20 6 2 9 13 7 23 -3 16 -9 10 -26
-25z"/>
<path d="M2131 1624 c0 -21 4 -48 9 -59 6 -13 7 -1 3 35 -7 66 -13 78 -12 24z"/>
<path d="M2944 1606 c1 -39 4 -52 12 -45 13 10 10 77 -3 90 -5 5 -9 -14 -9
-45z"/>
<path d="M3181 1644 c0 -11 3 -14 6 -6 3 7 2 16 -1 19 -3 4 -6 -2 -5 -13z"/>
<path d="M2088 1619 c-3 -19 1 -36 9 -45 18 -18 20 -17 20 1 0 8 -4 15 -9 15
-4 0 -8 9 -8 21 0 13 4 18 13 13 8 -5 8 -2 -2 9 -18 22 -18 22 -23 -14z"/>
<path d="M2260 1630 c-9 -6 -10 -10 -3 -10 6 0 15 5 18 10 8 12 4 12 -15 0z"/>
<path d="M2190 1606 c0 -16 -4 -25 -10 -21 -6 4 -10 -7 -10 -25 0 -17 4 -29 9
-26 11 7 25 85 17 93 -3 4 -6 -6 -6 -21z"/>
<path d="M2282 1590 c0 -14 2 -19 5 -12 2 6 2 18 0 25 -3 6 -5 1 -5 -13z"/>
<path d="M2352 1591 c-12 -10 -22 -25 -22 -32 0 -11 2 -11 10 1 8 12 12 13 19
1 6 -9 10 -4 13 18 2 17 4 31 3 31 -1 0 -12 -8 -23 -19z"/>
<path d="M2602 1590 c0 -14 2 -19 5 -12 2 6 2 18 0 25 -3 6 -5 1 -5 -13z"/>
<path d="M2741 1583 c0 -17 -5 -35 -11 -38 -11 -7 -11 -124 0 -163 l7 -27 12
28 c6 16 11 45 10 65 0 20 -3 31 -6 25 -9 -24 -19 -13 -21 23 -2 20 2 42 8 49
6 8 10 26 7 42 -4 27 -4 27 -6 -4z m9 -152 c0 -11 -4 -23 -10 -26 -6 -4 -10 5
-10 19 0 14 5 26 10 26 6 0 10 -9 10 -19z"/>
<path d="M2810 1580 c-12 -17 -26 -27 -32 -24 -5 3 -4 -3 3 -14 12 -19 14 -18
32 19 20 41 38 45 30 6 -14 -67 -26 -106 -33 -102 -4 3 -16 -17 -26 -43 -11
-26 -21 -51 -23 -56 -2 -5 6 1 18 13 11 11 21 25 21 30 0 5 3 11 8 13 4 2 24
36 45 75 35 70 48 121 27 108 -5 -3 -10 -19 -10 -36 0 -16 -5 -29 -11 -29 -6
0 -10 10 -9 23 5 57 -8 62 -40 17z"/>
<path d="M2911 1548 c-7 -35 -17 -74 -22 -86 -7 -18 -6 -23 3 -20 7 3 16 22
19 44 4 21 10 58 14 82 11 66 -1 49 -14 -20z"/>
<path d="M2521 1554 c-19 -80 -37 -125 -46 -117 -4 5 -5 0 -2 -10 4 -10 7 -27
7 -38 0 -10 5 -19 12 -19 6 0 9 2 6 5 -5 5 5 58 32 164 6 24 9 49 7 55 -2 6
-9 -12 -16 -40z"/>
<path d="M2580 1591 c0 -6 -9 -31 -20 -53 -11 -23 -20 -48 -20 -55 0 -8 -5
-11 -12 -7 -7 4 -8 3 -4 -5 4 -6 11 -9 16 -6 5 3 10 -3 13 -12 2 -10 4 -4 4
13 0 17 8 52 18 78 10 25 15 49 11 53 -3 3 -6 1 -6 -6z"/>
<path d="M2245 1580 c-3 -5 -1 -10 4 -10 6 0 11 5 11 10 0 6 -2 10 -4 10 -3 0
-8 -4 -11 -10z"/>
<path d="M2706 1565 c-5 -14 -10 -55 -20 -160 -4 -38 -3 -46 5 -32 6 10 12 44
14 75 2 31 6 74 10 95 7 37 2 50 -9 22z"/>
<path d="M3001 1549 c-14 -40 -14 -42 2 -28 12 11 22 59 13 59 -2 0 -9 -14
-15 -31z"/>
<path d="M3071 1564 c0 -11 3 -14 6 -6 3 7 2 16 -1 19 -3 4 -6 -2 -5 -13z"/>
<path d="M2633 1558 c-19 -27 -33 -65 -41 -108 -10 -58 -9 -73 3 -77 6 -1 11
20 11 50 2 66 21 118 35 97 8 -11 9 -9 4 9 -5 15 -2 27 6 32 8 5 9 9 3 9 -6 0
-16 -6 -21 -12z"/>
<path d="M2081 1544 c0 -11 3 -14 6 -6 3 7 2 16 -1 19 -3 4 -6 -2 -5 -13z"/>
<path d="M2490 1545 c0 -8 2 -15 4 -15 2 0 6 7 10 15 3 8 1 15 -4 15 -6 0 -10
-7 -10 -15z"/>
<path d="M3090 1545 c-10 -12 -10 -15 3 -15 8 0 17 7 21 15 3 8 2 15 -3 15 -5
0 -14 -7 -21 -15z"/>
<path d="M2110 1536 c0 -8 4 -17 9 -20 5 -4 7 3 4 14 -6 23 -13 26 -13 6z"/>
<path d="M2432 1525 c0 -16 2 -22 5 -12 2 9 2 23 0 30 -3 6 -5 -1 -5 -18z"/>
<path d="M2590 1534 c0 -8 5 -12 10 -9 6 3 10 10 10 16 0 5 -4 9 -10 9 -5 0
-10 -7 -10 -16z"/>
<path d="M2350 1521 c0 -25 6 -27 13 -6 4 8 2 17 -3 20 -6 4 -10 -3 -10 -14z"/>
<path d="M2666 1509 c-3 -17 -6 -46 -5 -63 1 -27 2 -25 10 13 4 23 11 52 14
62 4 10 2 19 -3 19 -5 0 -12 -14 -16 -31z"/>
<path d="M2211 1514 c0 -11 3 -14 6 -6 3 7 2 16 -1 19 -3 4 -6 -2 -5 -13z"/>
<path d="M2751 1524 c-1 -17 26 -67 31 -57 3 4 2 19 -3 33 -4 14 -8 18 -9 10
-1 -11 -4 -9 -10 5 -5 11 -9 15 -9 9z"/>
<path d="M2477 1500 c-3 -11 -1 -20 4 -20 5 0 9 9 9 20 0 11 -2 20 -4 20 -2 0
-6 -9 -9 -20z"/>
<path d="M3010 1501 c0 -5 5 -13 10 -16 6 -3 10 -2 10 4 0 5 -4 13 -10 16 -5
3 -10 2 -10 -4z"/>
<path d="M2317 1479 c4 -13 8 -18 11 -10 2 7 -1 18 -6 23 -8 8 -9 4 -5 -13z"/>
<path d="M2575 1489 c-4 -6 -5 -12 -2 -15 2 -3 7 2 10 11 7 17 1 20 -8 4z"/>
<path d="M2637 1479 c4 -13 8 -18 11 -10 2 7 -1 18 -6 23 -8 8 -9 4 -5 -13z"/>
<path d="M2422 1460 c0 -19 4 -46 8 -60 6 -20 8 -21 8 -5 1 11 -3 38 -7 60
l-9 40 0 -35z"/>
<path d="M2361 1464 c0 -11 3 -14 6 -6 3 7 2 16 -1 19 -3 4 -6 -2 -5 -13z"/>
<path d="M2396 1443 c7 -37 14 -42 14 -10 0 14 -4 28 -9 32 -6 3 -8 -6 -5 -22z"/>
<path d="M2965 1459 c-4 -6 -5 -12 -2 -15 2 -3 7 2 10 11 7 17 1 20 -8 4z"/>
<path d="M2986 1455 c-3 -8 -1 -15 3 -15 5 0 11 7 15 15 3 8 1 15 -3 15 -5 0
-11 -7 -15 -15z"/>
<path d="M2285 1450 c-7 -11 -1 -23 24 -52 28 -32 34 -19 8 16 -15 18 -23 36
-20 40 4 3 4 6 0 6 -3 0 -9 -4 -12 -10z"/>
<path d="M2617 1453 c-4 -3 -7 -20 -6 -37 l1 -31 9 34 c10 33 8 47 -4 34z"/>
<path d="M2855 1450 c-3 -5 -1 -10 4 -10 6 0 11 5 11 10 0 6 -2 10 -4 10 -3 0
-8 -4 -11 -10z"/>
<path d="M2332 1430 c0 -14 2 -19 5 -12 2 6 2 18 0 25 -3 6 -5 1 -5 -13z"/>
<path d="M2529 1434 c-1 -5 0 -22 1 -38 1 -18 -2 -26 -9 -22 -6 4 -11 1 -11
-7 0 -8 9 -17 19 -20 17 -4 19 0 16 40 -3 40 -13 70 -16 47z"/>
<path d="M2562 1410 c0 -14 2 -19 5 -12 2 6 2 18 0 25 -3 6 -5 1 -5 -13z"/>
<path d="M2636 1405 c-3 -16 -11 -42 -15 -57 -5 -16 -5 -28 -1 -28 12 0 32 76
27 98 -2 11 -6 6 -11 -13z"/>
<path d="M2857 1405 c-4 -26 -4 -26 14 -6 23 24 24 31 5 31 -7 0 -16 -11 -19
-25z"/>
<path d="M2383 1401 c1 -13 13 -30 27 -38 21 -13 22 -13 8 -1 -10 8 -22 26
-28 39 l-10 24 3 -24z"/>
<path d="M2660 1363 c0 -25 3 -44 6 -40 9 9 10 87 2 87 -5 0 -8 -21 -8 -47z"/>
<path d="M2562 1350 c0 -14 2 -19 5 -12 2 6 2 18 0 25 -3 6 -5 1 -5 -13z"/>
<path d="M2478 1340 c12 -11 24 -20 28 -20 4 0 -1 9 -11 20 -10 11 -23 20 -28
20 -6 0 -1 -9 11 -20z"/>
<path d="M3189 3353 c-8 -12 -34 -26 -57 -32 -23 -7 -42 -16 -42 -21 0 -12 72
11 150 49 l25 11 -27 -5 c-16 -3 -28 0 -30 7 -3 7 -10 4 -19 -9z"/>
<path d="M3303 3363 c-13 -2 -23 -9 -23 -14 0 -5 -5 -9 -11 -9 -6 0 -25 -6
-42 -14 -54 -25 -128 -47 -137 -41 -5 3 -31 -5 -57 -19 -26 -14 -41 -25 -33
-25 8 -1 28 6 44 14 15 8 36 15 45 15 18 -1 -57 -39 -77 -40 -7 0 -28 -15 -46
-32 -18 -18 -42 -38 -52 -44 -10 -7 -16 -15 -13 -18 4 -4 28 10 55 31 27 21
72 48 99 60 28 12 77 34 110 48 33 15 83 34 110 42 52 16 75 29 75 44 0 9 -8
10 -47 2z"/>
<path d="M3046 3345 c-10 -8 -22 -12 -27 -9 -7 4 -59 -41 -59 -52 0 -3 21 6
46 20 42 24 88 38 55 17 -10 -6 -10 -10 -1 -16 7 -4 19 0 28 9 11 10 12 16 4
16 -7 0 -12 7 -12 15 0 19 -9 19 -34 0z"/>
<path d="M2941 3301 c-16 -16 -37 -43 -45 -60 -15 -27 -15 -31 -1 -31 14 0 17
5 19 40 1 8 10 16 21 19 17 3 18 2 5 -14 -13 -16 -13 -18 0 -13 9 3 14 15 12
28 -1 13 5 31 14 42 27 29 8 21 -25 -11z"/>
<path d="M3501 3294 c0 -11 3 -14 6 -6 3 7 2 16 -1 19 -3 4 -6 -2 -5 -13z"/>
<path d="M3015 3289 c-4 -6 -17 -14 -29 -19 -18 -8 -18 -9 -3 -9 11 -1 30 8
44 19 18 14 21 20 10 20 -9 0 -19 -5 -22 -11z"/>
<path d="M2938 3222 c-36 -26 -54 -50 -44 -59 3 -3 24 13 47 36 51 48 49 60
-3 23z"/>
<path d="M3194 3239 c59 -14 54 -17 -17 -12 -55 5 -71 2 -118 -21 -30 -15 -71
-41 -91 -59 -30 -26 -37 -38 -36 -67 1 -31 2 -33 11 -12 6 12 14 22 19 22 4 0
8 8 8 18 1 20 71 75 119 91 65 21 161 10 161 -19 0 -27 -11 -51 -21 -44 -5 3
-6 -2 -3 -11 5 -11 2 -14 -10 -9 -12 5 -15 2 -10 -11 6 -14 1 -16 -37 -11 -24
3 -47 5 -52 5 -11 1 -31 53 -28 75 2 11 -2 16 -8 12 -16 -10 -13 -48 4 -73
l16 -22 -48 14 c-58 18 -73 19 -73 3 0 -6 3 -9 6 -5 3 3 18 1 33 -5 14 -5 42
-11 61 -14 19 -2 54 -6 78 -10 40 -6 45 -4 72 26 17 19 30 44 30 56 0 13 4 25
8 28 9 5 79 -61 71 -68 -2 -2 -29 -13 -59 -24 -50 -19 -52 -21 -23 -21 17 -1
35 4 38 10 4 6 14 8 22 5 8 -3 12 -2 9 3 -10 16 27 22 43 7 9 -8 18 -15 21
-15 3 0 13 -3 23 -7 10 -3 20 -4 23 -2 6 7 -106 128 -119 128 -5 0 -3 -8 4
-17 13 -16 12 -17 -3 -5 -10 8 -16 19 -15 25 3 14 -80 46 -118 45 -27 0 -26
-1 9 -9z m86 -29 c8 -5 11 -10 5 -10 -5 0 -17 5 -25 10 -8 5 -10 10 -5 10 6 0
17 -5 25 -10z m85 -80 c3 -5 1 -10 -4 -10 -6 0 -11 5 -11 10 0 6 2 10 4 10 3
0 8 -4 11 -10z"/>
<path d="M3124 3186 c-19 -15 -19 -15 1 -30 11 -8 25 -16 32 -16 18 0 26 19
14 34 -6 7 -8 16 -4 19 13 13 -24 7 -43 -7z m18 -18 c-7 -7 -12 -8 -12 -2 0 6
3 14 7 17 3 4 9 5 12 2 2 -3 -1 -11 -7 -17z"/>
<path d="M3211 3178 c-1 -10 -5 -18 -11 -18 -5 0 -10 -8 -10 -17 0 -14 3 -13
16 5 8 12 13 28 11 35 -3 7 -6 5 -6 -5z"/>
<path d="M3120 3120 c8 -5 22 -9 30 -9 10 0 8 3 -5 9 -27 12 -43 12 -25 0z"/>
<path d="M2960 3032 c0 -5 9 -12 21 -15 13 -3 19 -1 16 6 -5 15 -37 22 -37 9z"/>
<path d="M2988 2973 c7 -3 16 -2 19 1 4 3 -2 6 -13 5 -11 0 -14 -3 -6 -6z"/>
<path d="M1380 3826 c0 -2 8 -10 18 -17 15 -13 16 -12 3 4 -13 16 -21 21 -21
13z"/>
<path d="M1206 2844 c-12 -94 -6 -715 9 -839 37 -312 62 -441 125 -650 53
-176 226 -605 244 -605 7 0 -14 53 -94 240 -140 328 -207 583 -252 949 -18
151 -21 232 -22 564 0 213 -1 387 -2 387 -1 0 -4 -21 -8 -46z"/>
<path d="M989 1673 c121 -238 274 -652 497 -1352 38 -117 70 -208 72 -203 8
26 -245 795 -374 1135 -95 250 -207 497 -227 497 -4 0 10 -35 32 -77z"/>
<path d="M385 1575 c-121 -66 -149 -85 -127 -85 6 0 62 29 124 64 62 36 116
62 120 60 4 -3 8 -15 8 -28 0 -12 34 -132 76 -267 41 -134 97 -320 124 -414
27 -93 63 -210 79 -258 17 -49 40 -127 52 -174 24 -94 63 -200 55 -148 -8 51
-70 274 -109 390 -20 61 -50 160 -67 220 -18 61 -67 225 -110 365 -43 140 -81
274 -85 298 -4 23 -10 42 -13 42 -4 0 -61 -30 -127 -65z"/>
<path d="M670 1634 c0 -6 18 -57 41 -115 83 -213 209 -569 259 -734 28 -93 76
-246 106 -338 30 -92 54 -174 54 -182 0 -8 5 -15 10 -15 12 0 12 0 1 36 -23
70 -123 392 -166 534 -46 149 -168 490 -254 709 -40 101 -51 125 -51 105z"/>
<path d="M1919 1507 c6 -8 7 -18 3 -22 -4 -5 -1 -5 6 -1 10 6 10 11 1 22 -6 8
-14 14 -16 14 -3 0 0 -6 6 -13z"/>
<path d="M327 1489 c7 -7 15 -10 18 -7 3 3 -2 9 -12 12 -14 6 -15 5 -6 -5z"/>
<path d="M2004 1420 c0 -13 4 -16 10 -10 7 7 7 13 0 20 -6 6 -10 3 -10 -10z"/>
<path d="M618 1423 c7 -3 16 -2 19 1 4 3 -2 6 -13 5 -11 0 -14 -3 -6 -6z"/>
<path d="M3085 1411 c-3 -5 0 -13 6 -17 7 -4 9 -3 5 4 -3 5 0 13 6 15 9 4 10
6 1 6 -6 1 -14 -3 -18 -8z"/>
<path d="M4150 1316 c0 -3 20 -74 44 -158 24 -84 62 -232 85 -328 48 -200 79
-311 91 -323 10 -11 -103 448 -162 656 -22 81 -45 150 -50 153 -4 3 -8 3 -8 0z"/>
<path d="M3120 1168 c-30 -62 -91 -166 -135 -232 -103 -156 -102 -155 -75
-131 48 42 180 258 244 398 54 117 28 91 -34 -35z"/>
<path d="M2335 1189 c-4 -6 -5 -12 -2 -15 2 -3 7 2 10 11 7 17 1 20 -8 4z"/>
<path d="M2444 1144 c47 -117 85 -264 126 -494 34 -189 38 -206 46 -197 6 6
-35 243 -73 422 -26 123 -76 269 -95 281 -8 5 -9 1 -4 -12z"/>
<path d="M2420 1090 c0 -5 5 -10 11 -10 5 0 7 5 4 10 -3 6 -8 10 -11 10 -2 0
-4 -4 -4 -10z"/>
<path d="M1850 1013 c1 -5 66 -93 145 -197 79 -105 142 -193 140 -196 -2 -3 4
-6 14 -7 17 -1 -71 124 -243 345 -49 61 -56 69 -56 55z"/>
<path d="M1333 938 c1 -15 6 -23 11 -18 4 4 4 16 -2 26 -9 16 -10 14 -9 -8z"/>
<path d="M1860 931 c0 -6 4 -13 10 -16 6 -3 7 1 4 9 -7 18 -14 21 -14 7z"/>
<path d="M2896 902 c-3 -5 1 -9 9 -9 8 0 12 4 9 9 -3 4 -7 8 -9 8 -2 0 -6 -4
-9 -8z"/>
<path d="M2805 810 c-3 -6 -1 -26 5 -45 10 -30 9 -37 -9 -57 -24 -25 -28 -58
-7 -58 8 0 22 9 30 21 8 12 19 18 25 15 5 -4 12 -2 15 3 3 5 -3 11 -14 14 -12
3 -20 14 -20 26 0 18 3 19 24 11 18 -6 26 -5 29 4 7 16 -9 43 -20 33 -4 -5 -1
-12 7 -17 11 -7 9 -9 -8 -7 -15 1 -20 6 -17 17 6 20 -30 57 -40 40z m25 -35
c0 -8 -2 -15 -4 -15 -2 0 -6 7 -10 15 -3 8 -1 15 4 15 6 0 10 -7 10 -15z m-16
-89 c-3 -9 -10 -16 -15 -16 -6 0 -5 9 1 21 13 24 24 20 14 -5z"/>
<path d="M2100 736 c0 -2 8 -10 18 -17 15 -13 16 -12 3 4 -13 16 -21 21 -21
13z"/>
<path d="M4381 684 c0 -11 3 -14 6 -6 3 7 2 16 -1 19 -3 4 -6 -2 -5 -13z"/>
</g>
</svg>
